:FULLY-SPECIFIED
:FORCE-ALL-JOINTS-BE-3DOF
:DEGREES
747
root 4.00141 17.2663 14.3604 -163.866 -5.67049 -171.132
lfemur -30.8368 4.04465 -12.5787
ltibia 39.6017 -0 0
lfoot -13.5489 0.0741048 -2.5411
ltoes 15.3888 -0 0
rfemur -24.9871 -30.5885 8.14507
rtibia 105.269 -0 0
rfoot 22.8477 -0.364027 0.598305
rtoes 27.9142 -0 0
lowerback 2.15468 6.25589 -1.54886
upperback -1.51997 8.30117 -2.60191
thorax -2.56228 4.16906 -2.14264
lowerneck -6.5648 -8.38837 -1.71319
upperneck -1.65274 -11.0865 4.932
head 0.981809 -5.46131 1.4894
lclavicle 5.82716e-15 -3.00319e-14 7.43549e-30
lhumerus -52.4345 -14.1567 70.1399
lradius 55.4907 -0 0
lwrist 16.1644 0 0
lhand -26.0621 -6.32928 0.0665788
lfingers 7.12502 -0 0
lthumb 0.485647 23.6182 0.0638831
rclavicle 5.82716e-15 -3.00319e-14 7.43549e-30
rhumerus 19.0105 37.7855 -64.2606
rradius 88.7372 -0 0
rwrist -0.448187 0 0
rhand -23.1551 -23.8616 0.358519
rfingers 7.12502 -0 0
rthumb 3.29216 -53.7322 0.350371
748
root 3.92608 17.0556 14.6368 -163.84 -1.97804 -171.176
lfemur -32.4362 6.55586 -14.1617
ltibia 42.8001 -0 0
lfoot -16.6322 2.00332 -2.43676
ltoes 14.8905 -0 0
rfemur -24.7984 -30.8293 10.2835
rtibia 102.515 -0 0
rfoot 21.541 -1.4227 0.574046
rtoes 27.6258 -0 0
lowerback 2.42366 6.12833 -1.94981
upperback -1.35471 8.11855 -2.76716
thorax -2.57854 4.08715 -2.10988
lowerneck -6.36381 -8.49596 -1.76141
upperneck -1.64575 -11.2144 5.1692
head 0.973169 -5.51432 1.5742
lclavicle 3.36971e-16 -2.69107e-14 7.13504e-30
lhumerus -52.139 -13.6194 73.2229
lradius 56.3731 -0 0
lwrist 15.5867 0 0
lhand -26.6018 -6.61374 0.063887
lfingers 7.12502 -0 0
lthumb -0.0355863 23.3356 0.0613003
rclavicle 3.36971e-16 -2.69107e-14 7.13504e-30
rhumerus 15.7802 40.9627 -68.2231
rradius 88.4564 -0 0
rwrist 0.545039 0 0
rhand -22.2804 -22.9152 0.344003
rfingers 7.12502 -0 0
rthumb 4.13677 -52.7744 0.336185
749
root 3.85276 16.8507 14.9055 -163.816 1.61296 -171.217
lfemur -34.0675 8.95388 -15.7776
ltibia 45.9105 -0 0
lfoot -19.6255 3.87129 -2.23607
ltoes 14.4059 -0 0
rfemur -24.6246 -31.0691 12.3675
rtibia 99.8371 -0 0
rfoot 20.271 -2.45148 0.527312
rtoes 27.3453 -0 0
lowerback 2.68604 6.00608 -2.34023
upperback -1.19355 7.94141 -2.92831
thorax -2.59439 4.0075 -2.07799
lowerneck -6.1682 -8.60045 -1.80868
upperneck -1.63947 -11.3389 5.39996
head 0.964689 -5.56586 1.65669
lclavicle -5.00234e-15 -2.38753e-14 6.55599e-30
lhumerus -51.8243 -13.1125 76.2174
lradius 57.2313 -0 0
lwrist 15.0249 0 0
lhand -27.1266 -6.89033 0.0586997
lfingers 7.12502 -0 0
lthumb -0.542438 23.0609 0.0563232
rclavicle -5.00234e-15 -2.38753e-14 6.55599e-30
rhumerus 12.1985 43.8704 -72.4998
rradius 88.1832 -0 0
rwrist 1.51097 0 0
rhand -21.4302 -21.9951 0.316034
rfingers 7.12502 -0 0
rthumb 4.95782 -51.8432 0.308852
750
root 3.78284 16.6555 15.1617 -163.796 5.03485 -171.255
lfemur -35.6967 11.1946 -17.3926
ltibia 48.8745 -0 0
lfoot -22.4699 5.63897 -1.95451
ltoes 13.9442 -0 0
rfemur -24.4682 -31.3026 14.3575
rtibia 97.2853 -0 0
rfoot 19.0617 -3.43062 0.461581
rtoes 27.078 -0 0
lowerback 2.93678 5.89125 -2.71269
upperback -1.03957 7.77302 -3.08226
thorax -2.60953 3.93161 -2.04759
lowerneck -5.98167 -8.69986 -1.85407
upperneck -1.63396 -11.4575 5.61993
head 0.956539 -5.61497 1.73531
lclavicle -1.00902e-14 -2.09828e-14 5.74101e-30
lhumerus -51.5001 -12.6448 79.0679
lradius 58.049 -0 0
lwrist 14.4896 0 0
lhand -27.6267 -7.15383 0.0513996
lfingers 7.12502 -0 0
lthumb -1.0254 22.7991 0.0493188
rclavicle -1.00902e-14 -2.09828e-14 5.74101e-30
rhumerus 8.33488 46.44 -77.0124
rradius 87.923 -0 0
rwrist 2.43147 0 0
rhand -20.6205 -21.1188 0.276684
rfingers 7.12502 -0 0
rthumb 5.73969 -50.9564 0.270397
